Coordinates
version=1
nRows=10
nColumns=46
inDegrees=yes

Units are S.I. units (second, meters, Newtons, ...)
Angles are in degrees.

endheader
time	pelvis_tilt	pelvis_list	pelvis_rotation	pelvis_tx	pelvis_ty	pelvis_tz	bb_angle	bb_tx	bb_ty	bb_tz	hip_flexion_r	hip_adduction_r	hip_rotation_r	knee_angle_r	knee_angle_r_beta	ankle_angle_r	subtalar_angle_r	mtp_angle_r	crank_angle_r	hip_flexion_l	hip_adduction_l	hip_rotation_l	knee_angle_l	knee_angle_l_beta	ankle_angle_l	subtalar_angle_l	mtp_angle_l	crank_angle_l	lumbar_extension	lumbar_bending	lumbar_rotation	arm_flex_r	arm_add_r	arm_rot_r	elbow_flex_r	pro_sup_r	wrist_flex_r	wrist_dev_r	arm_flex_l	arm_add_l	arm_rot_l	elbow_flex_l	pro_sup_l	wrist_flex_l	wrist_dev_l
      0.00000000	    -20.05728131	     -2.61366544	      0.65274706	      0.04504801	      1.09078729	     -0.27366003	      0.00000000	      0.50000000	      0.00000000	      0.25000000	     79.35571847	     -4.28004363	     -2.28166266	     72.88392684	      1.27206450	      8.91766539	     -6.82542332	      0.00000000	      0.00000000	     60.06150977	     -9.74393054	      0.14795350	     80.36663016	      1.40266230	     11.40228204	     -2.21827859	      0.00000000	      0.00000000	    -46.77432476	      1.35775521	      4.44605785	     89.71515773	     -8.50641315	     35.83759492	     28.95899456	     22.89717330	      0.00000000	      0.00000000	     89.73837548	     -4.11330484	     14.57098384	     51.50871518	     24.96656723	      0.00000000	      0.00000000
      0.00500000	    -20.09627063	     -2.59847032	      0.65007676	      0.04501389	      1.09071713	     -0.27363348	      0.00000000	      0.50000000	      0.00000000	      0.25000000	     79.41298080	     -4.28225966	     -2.25644879	     72.89801639	      1.27231040	      8.89815181	     -6.81047639	      0.00000000	      0.00000000	     60.10350947	     -9.73883786	      0.11856952	     80.35893987	      1.40252808	     11.38125551	     -2.26985838	      0.00000000	      0.00000000	    -46.73291917	      1.35477754	      4.48648092	     89.71075326	     -8.36458149	     35.18783352	     28.70826342	     23.97303746	      0.00000000	      0.00000000	     89.74121571	     -4.04847866	     14.47511465	     51.22816621	     26.04323860	      0.00000000	      0.00000000
      0.01000000	    -20.05072678	     -2.63275553	      0.65642034	      0.04500809	      1.09080512	     -0.27360022	      0.00000000	      0.50000000	      0.00000000	      0.25000000	     79.35808318	     -4.28255481	     -2.30969043	     72.90099296	      1.27236236	      8.93344900	     -6.78540775	      0.00000000	      0.00000000	     60.05726694	     -9.76551027	      0.15855805	     80.35114208	      1.40239199	     11.40195166	     -2.18827276	      0.00000000	      0.00000000	    -46.79695838	      1.35575420	      4.52455917	     89.71076502	     -8.34583160	     34.56225799	     28.61849975	     25.00778793	      0.00000000	      0.00000000	     89.74197019	     -3.98142683	     14.41607099	     51.05928939	     27.07148061	      0.00000000	      0.00000000
      0.01500000	    -19.87107974	     -2.70712278	      0.75488532	      0.04503571	      1.09132100	     -0.27377359	      0.00000000	      0.50000000	      0.00000000	      0.25000000	     79.11955316	     -4.36706021	     -2.43592887	     72.88004482	      1.27199674	      8.95464131	     -6.84303376	      0.00000000	      0.00000000	     59.84431328	     -9.69330737	      0.27976938	     80.28903261	      1.40130797	     11.40429461	     -2.31653463	      0.00000000	      0.00000000	    -47.09170480	      1.49403156	      4.54515957	     89.70491394	     -8.39927923	     33.75774609	     29.13012873	     25.95175523	      0.00000000	      0.00000000	     89.74461819	     -4.01296005	     14.01181086	     51.77246195	     28.04165236	      0.00000000	      0.00000000
      0.02000000	    -20.03760456	     -2.62813969	      0.71341230	      0.04493546	      1.09109572	     -0.27362746	      0.00000000	      0.50000000	      0.00000000	      0.25000000	     79.35159948	     -4.35701886	     -2.31410634	     72.95192783	      1.27325134	      9.00871211	     -6.71251240	      0.00000000	      0.00000000	     60.00915068	     -9.67981743	      0.19393250	     80.27328686	      1.40103316	     11.32511613	     -2.32713171	      0.00000000	      0.00000000	    -46.83039287	      1.38406768	      4.29411577	     89.71773848	     -8.38750439	     35.74767695	     28.48856102	     25.42168551	      0.00000000	      0.00000000	     89.73978686	     -4.38316382	     14.64626316	     50.97364910	     27.53834131	      0.00000000	      0.00000000
      0.02500000	    -19.97562001	     -2.70611479	      0.72750013	      0.04493282	      1.09122885	     -0.27364983	      0.00000000	      0.50000000	      0.00000000	      0.25000000	     79.26651891	     -4.35456878	     -2.41533706	     72.95072134	      1.27323028	      9.03113093	     -6.70774739	      0.00000000	      0.00000000	     59.95659852	     -9.71889861	      0.27690577	     80.26524877	      1.40089287	     11.35537103	     -2.25606476	      0.00000000	      0.00000000	    -46.91947701	      1.45525334	      4.54377936	     89.71152356	     -8.48141253	     34.57359245	     28.57823080	     26.57666524	      0.00000000	      0.00000000	     89.74503478	     -4.13769941	     14.29404552	     51.38411059	     28.75124253	      0.00000000	      0.00000000
      0.03000000	    -20.05056113	     -2.65722369	      0.71272601	      0.04487033	      1.09110637	     -0.27356171	      0.00000000	      0.50000000	      0.00000000	      0.25000000	     79.37600259	     -4.34568643	     -2.34075724	     72.97385754	      1.27363408	      9.02090735	     -6.70272599	      0.00000000	      0.00000000	     60.02756138	     -9.69748625	      0.22685439	     80.25043520	      1.40063432	     11.30820996	     -2.32943561	      0.00000000	      0.00000000	    -46.83203260	      1.37720220	      4.44073988	     89.71063439	     -8.30563424	     34.23908673	     28.26455994	     27.25820343	      0.00000000	      0.00000000	     89.74304966	     -4.15549786	     14.40768103	     50.49177394	     29.35180114	      0.00000000	      0.00000000
      0.03500000	    -20.03981389	     -2.62737080	      0.68589239	      0.04484119	      1.09110722	     -0.27358821	      0.00000000	      0.50000000	      0.00000000	      0.25000000	     79.37899038	     -4.34092673	     -2.31351667	     72.98272653	      1.27378888	      9.02009450	     -6.68694169	      0.00000000	      0.00000000	     59.99872031	     -9.69188316	      0.18258595	     80.23436349	      1.40035382	     11.27132262	     -2.41095887	      0.00000000	      0.00000000	    -46.84362353	      1.33376050	      4.42109769	     89.71606985	     -8.69194164	     36.26203590	     28.54348096	     25.90388471	      0.00000000	      0.00000000	     89.74413663	     -4.24213040	     14.34714183	     51.47542805	     28.33307015	      0.00000000	      0.00000000
      0.04000000	    -19.87461180	     -2.72329885	      0.76422243	      0.04480133	      1.09141060	     -0.27369421	      0.00000000	      0.50000000	      0.00000000	      0.25000000	     79.17395430	     -4.39778200	     -2.45238036	     72.98229872	      1.27378141	      9.07608311	     -6.67681303	      0.00000000	      0.00000000	     59.84153527	     -9.68491126	      0.32655474	     80.21360039	      1.39999143	     11.35130740	     -2.26002618	      0.00000000	      0.00000000	    -47.08999358	      1.45941131	      4.53732771	     89.70905477	     -8.66054084	     34.80171633	     28.82181825	     27.07338069	      0.00000000	      0.00000000	     89.74506242	     -4.07977427	     14.35397166	     50.67758009	     29.32437173	      0.00000000	      0.00000000
      0.04500000	    -19.97598303	     -2.69585360	      0.74227430	      0.04476111	      1.09121078	     -0.27363321	      0.00000000	      0.50000000	      0.00000000	      0.25000000	     79.30194951	     -4.39193673	     -2.42325716	     72.99682377	      1.27403492	      9.08086720	     -6.65736067	      0.00000000	      0.00000000	     59.94999263	     -9.68462370	      0.28711993	     80.21397435	      1.39999796	     11.29751197	     -2.28827382	      0.00000000	      0.00000000	    -46.94610479	      1.42103205	      4.58374305	     89.71030401	     -8.50916453	     34.25327094	     28.42527340	     27.62884394	      0.00000000	      0.00000000	     89.74488538	     -4.02110097	     14.42369820	     50.39015436	     29.89902411	      0.00000000	      0.00000000
